<svg width="25" height="21" viewBox="0 0 25 21" fill="none" xmlns="http://www.w3.org/2000/svg">
<path d="M11.3058 12.9583L9.41293 14.5C9.0139 14.825 8.37955 14.825 7.97029 14.5083C7.85775 14.4167 7.7452 14.3333 7.63265 14.2417C6.57881 13.375 5.62728 12.4667 4.77807 11.5167C3.93909 10.5667 3.26381 9.61666 2.7727 8.67499C2.29182 7.72499 2.04626 6.81666 2.04626 5.94999C2.04626 5.38332 2.16904 4.84166 2.4146 4.34166C2.66015 3.83332 3.04895 3.36666 3.59122 2.94999C4.24603 2.42499 4.96224 2.16666 5.71937 2.16666C6.00585 2.16666 6.29233 2.21666 6.54812 2.31666C6.81413 2.41666 7.04946 2.56666 7.23363 2.78332L9.60733 5.50832C9.7915 5.71666 9.9245 5.90832 10.0166 6.09166C10.1087 6.26666 10.1598 6.44166 10.1598 6.59999C10.1598 6.79999 10.0882 6.99999 9.94497 7.19166C9.81196 7.38332 9.61756 7.58332 9.372 7.78332L8.59441 8.44166C8.48187 8.53332 8.43071 8.64166 8.43071 8.77499C8.43071 8.84166 8.44094 8.89999 8.4614 8.96666C8.4921 9.03332 8.52279 9.08332 8.54326 9.13332C8.72742 9.40832 9.0446 9.76666 9.49478 10.2C9.9552 10.6333 10.4463 11.075 10.9783 11.5167C11.0807 11.6 11.1932 11.6833 11.2955 11.7667C11.7048 12.0917 11.715 12.625 11.3058 12.9583Z" fill="white"/>
<path d="M22.4786 15.775C22.4786 16.0083 22.4275 16.25 22.3251 16.4833C22.2944 16.55 22.2637 16.6167 22.2228 16.6833C22.0489 16.9833 21.8238 17.2667 21.5271 17.5333C21.0257 17.9833 20.4732 18.3083 19.8491 18.5167C19.8389 18.5167 19.8287 18.525 19.8184 18.525C19.2148 18.725 18.56 18.8333 17.854 18.8333C16.8104 18.8333 15.6951 18.6333 14.5185 18.225C13.3419 17.8167 12.1653 17.2667 10.9989 16.575C10.5999 16.3333 10.2008 16.0917 9.82227 15.8333L13.168 13.1083C13.4544 13.2833 13.7102 13.4167 13.9251 13.5083C13.9762 13.525 14.0376 13.55 14.1093 13.575C14.1911 13.6 14.273 13.6083 14.365 13.6083C14.539 13.6083 14.672 13.5583 14.7845 13.4667L15.5621 12.8417C15.8179 12.6333 16.0635 12.475 16.2988 12.375C16.5341 12.2583 16.7694 12.2 17.0252 12.2C17.2196 12.2 17.4243 12.2333 17.6493 12.3083C17.8744 12.3833 18.1098 12.4917 18.3656 12.6333L21.7522 14.5917C22.0182 14.7417 22.2024 14.9167 22.3149 15.125C22.4172 15.3333 22.4786 15.5417 22.4786 15.775Z" fill="white"/>
</svg>
