<?xml version="1.0" encoding="utf-8"?>
<!-- Generator: Adobe Illustrator 26.3.1, SVG Export Plug-In . SVG Version: 6.00 Build 0)  -->
<svg version="1.1" id="Layer_1" xmlns="http://www.w3.org/2000/svg" xmlns:xlink="http://www.w3.org/1999/xlink" x="0px" y="0px"
	 viewBox="0 0 109.27 24" style="enable-background:new 0 0 109.27 24;" xml:space="preserve">
<style type="text/css">
	.st0{fill:url(#SVGID_1_);}
	.st1{fill:url(#SVGID_00000017480972974111640410000009789983860877384334_);}
	.st2{fill:url(#SVGID_00000111897643247420757530000014775650540255886241_);}
	.st3{fill:url(#SVGID_00000164499318976227222460000008135764386430459546_);}
	.st4{fill:url(#SVGID_00000034778536647504037900000003603476790878143932_);}
	.st5{fill:url(#SVGID_00000088091677779298603180000012804586434055546805_);}
	.st6{fill:url(#SVGID_00000095298704442894601360000001930307996727469974_);}
</style>
<g>
	<g>
		<linearGradient id="SVGID_1_" gradientUnits="userSpaceOnUse" x1="-4.7214" y1="3.4062" x2="75.806" y2="35.4767">
			<stop  offset="0" style="stop-color:#662F90"/>
			<stop  offset="1" style="stop-color:#272361"/>
		</linearGradient>
		<path class="st0" d="M2.73,4.6C3.66,3.32,4.82,2.33,6.2,1.61c1.38-0.71,2.87-1.07,4.46-1.07c1.96,0,3.54,0.52,4.76,1.55
			c1.21,1.03,1.9,2.44,2.06,4.23h-4.42c-0.2-0.67-0.58-1.19-1.12-1.54c-0.54-0.35-1.2-0.53-1.99-0.53c-1.24,0-2.31,0.43-3.22,1.28
			C5.83,6.39,5.25,7.53,5,8.96C4.92,9.4,4.88,9.78,4.88,10.11c0,1.1,0.31,1.97,0.92,2.61c0.61,0.64,1.45,0.96,2.51,0.96
			c0.77,0,1.48-0.18,2.15-0.54c0.67-0.36,1.23-0.88,1.68-1.55h4.42c-0.78,1.79-1.97,3.19-3.55,4.22c-1.58,1.03-3.35,1.54-5.31,1.54
			c-1.41,0-2.64-0.27-3.69-0.82c-1.05-0.55-1.86-1.32-2.42-2.33c-0.56-1-0.85-2.17-0.85-3.5c0-0.6,0.05-1.17,0.16-1.74
			C1.19,7.33,1.8,5.87,2.73,4.6z"/>
		
			<linearGradient id="SVGID_00000138537401349512657500000011758226636492361859_" gradientUnits="userSpaceOnUse" x1="-2.8173" y1="-1.3749" x2="77.71" y2="30.6956">
			<stop  offset="0" style="stop-color:#662F90"/>
			<stop  offset="1" style="stop-color:#272361"/>
		</linearGradient>
		<path style="fill:url(#SVGID_00000138537401349512657500000011758226636492361859_);" d="M19.78,7.1c0.69-1.02,1.52-1.8,2.49-2.35
			c0.97-0.55,2-0.82,3.08-0.82c0.92,0,1.7,0.19,2.33,0.56c0.63,0.38,1.08,0.87,1.36,1.48l0.33-1.86h4.02l-2.33,13.11h-4.02
			l0.35-1.86c-0.5,0.61-1.14,1.1-1.9,1.48c-0.77,0.38-1.61,0.56-2.54,0.56c-0.92,0-1.74-0.21-2.46-0.63
			c-0.71-0.42-1.27-1.02-1.66-1.8c-0.39-0.78-0.59-1.69-0.59-2.74c0-0.5,0.05-1.03,0.14-1.6C18.63,9.3,19.09,8.12,19.78,7.1z
			 M28.29,9.9c0-0.77-0.22-1.37-0.67-1.81c-0.45-0.44-1.01-0.66-1.7-0.66c-0.8,0-1.53,0.29-2.19,0.86
			c-0.66,0.57-1.07,1.36-1.25,2.36c-0.05,0.28-0.07,0.54-0.07,0.78c0,0.77,0.22,1.38,0.67,1.82c0.45,0.45,1.01,0.67,1.68,0.67
			c0.8,0,1.53-0.29,2.19-0.87c0.66-0.58,1.08-1.37,1.27-2.37C28.27,10.39,28.29,10.13,28.29,9.9z"/>
		
			<linearGradient id="SVGID_00000120532210007535713720000015420053904914952621_" gradientUnits="userSpaceOnUse" x1="-1.109" y1="-5.6643" x2="79.4184" y2="26.4062">
			<stop  offset="0" style="stop-color:#662F90"/>
			<stop  offset="1" style="stop-color:#272361"/>
		</linearGradient>
		<path style="fill:url(#SVGID_00000120532210007535713720000015420053904914952621_);" d="M36.64,16.92
			c-0.82-0.33-1.47-0.79-1.94-1.37S34,14.28,34,13.52c0-0.11,0.02-0.31,0.05-0.59h3.88c-0.03,0.49,0.11,0.87,0.43,1.16
			c0.32,0.29,0.78,0.43,1.37,0.43c0.5,0,0.92-0.09,1.25-0.28c0.33-0.19,0.49-0.45,0.49-0.8c0-0.33-0.18-0.59-0.53-0.79
			c-0.35-0.2-0.94-0.43-1.75-0.72c-0.85-0.28-1.55-0.56-2.13-0.83c-0.57-0.27-1.06-0.67-1.47-1.19c-0.41-0.52-0.61-1.17-0.61-1.95
			c0-0.77,0.23-1.46,0.68-2.08c0.45-0.62,1.09-1.1,1.92-1.45c0.82-0.34,1.77-0.52,2.86-0.52c1.08,0,2.02,0.18,2.82,0.53
			c0.8,0.35,1.42,0.84,1.86,1.47c0.44,0.63,0.66,1.33,0.66,2.12l-0.02,0.35h-3.64c0.03-0.47-0.11-0.85-0.42-1.13
			c-0.31-0.28-0.76-0.42-1.34-0.42c-0.45,0-0.83,0.09-1.12,0.28c-0.29,0.19-0.43,0.45-0.43,0.78c0,0.35,0.19,0.63,0.58,0.86
			c0.38,0.23,0.98,0.48,1.8,0.76c0.85,0.28,1.55,0.56,2.1,0.83c0.56,0.27,1.03,0.66,1.43,1.15c0.4,0.49,0.6,1.11,0.6,1.84
			c0,0.85-0.25,1.57-0.76,2.19c-0.51,0.61-1.21,1.08-2.09,1.4c-0.89,0.32-1.89,0.48-3.02,0.48C38.39,17.42,37.46,17.25,36.64,16.92z
			"/>
		
			<linearGradient id="SVGID_00000142856998214801369980000016702382536896538773_" gradientUnits="userSpaceOnUse" x1="0.9408" y1="-10.8112" x2="81.4681" y2="21.2593">
			<stop  offset="0" style="stop-color:#662F90"/>
			<stop  offset="1" style="stop-color:#272361"/>
		</linearGradient>
		<path style="fill:url(#SVGID_00000142856998214801369980000016702382536896538773_);" d="M60.52,5.08
			c0.74,0.74,1.12,1.76,1.12,3.08c0,0.44-0.05,0.91-0.14,1.41l-1.36,7.66h-4l1.27-7.12c0.05-0.27,0.07-0.5,0.07-0.71
			c0-0.66-0.18-1.17-0.55-1.53c-0.37-0.36-0.88-0.54-1.54-0.54c-0.78,0-1.44,0.24-1.97,0.73c-0.53,0.49-0.88,1.17-1.03,2.04v-0.05
			l-1.27,7.17h-4.02l3.08-16.5h4.02l-1.06,5.12c0.52-0.58,1.15-1.04,1.9-1.37c0.75-0.34,1.57-0.51,2.44-0.51
			C58.76,3.97,59.77,4.34,60.52,5.08z"/>
	</g>
	<g>
		<g>
			<g>
				
					<linearGradient id="SVGID_00000016794749722868100620000008759021121173590443_" gradientUnits="userSpaceOnUse" x1="62.414" y1="2.4097" x2="106.5793" y2="17.2355">
					<stop  offset="0" style="stop-color:#FBB03A"/>
					<stop  offset="1" style="stop-color:#F15A26"/>
				</linearGradient>
				<path style="fill:url(#SVGID_00000016794749722868100620000008759021121173590443_);" d="M79.35,7.1
					c0.69-1.02,1.52-1.8,2.49-2.35c0.97-0.55,2-0.82,3.08-0.82c0.92,0,1.7,0.19,2.33,0.56c0.63,0.38,1.08,0.87,1.36,1.48l0.33-1.86
					h4.02l-2.33,13.11h-4.02l0.35-1.86c-0.5,0.61-1.14,1.1-1.9,1.48c-0.77,0.38-1.61,0.56-2.54,0.56c-0.92,0-1.74-0.21-2.46-0.63
					c-0.71-0.42-1.27-1.02-1.66-1.8c-0.39-0.78-0.59-1.69-0.59-2.74c0-0.5,0.05-1.03,0.14-1.6C78.2,9.3,78.66,8.12,79.35,7.1z
					 M87.86,9.9c0-0.77-0.22-1.37-0.67-1.81c-0.45-0.44-1.01-0.66-1.7-0.66c-0.8,0-1.53,0.29-2.19,0.86
					c-0.66,0.57-1.07,1.36-1.25,2.36c-0.05,0.28-0.07,0.54-0.07,0.78c0,0.77,0.22,1.38,0.67,1.82c0.45,0.45,1.01,0.67,1.68,0.67
					c0.8,0,1.53-0.29,2.19-0.87c0.66-0.58,1.08-1.37,1.27-2.37C87.84,10.39,87.86,10.13,87.86,9.9z"/>
				
					<linearGradient id="SVGID_00000122709244612281828420000004699563509969984640_" gradientUnits="userSpaceOnUse" x1="62.9191" y1="0.9051" x2="107.0843" y2="15.7309">
					<stop  offset="0" style="stop-color:#FBB03A"/>
					<stop  offset="1" style="stop-color:#F15A26"/>
				</linearGradient>
				<path style="fill:url(#SVGID_00000122709244612281828420000004699563509969984640_);" d="M98.86,4.12l1.6,8.2l4.47-8.2h4.35
					L97.64,23.46h-4.32l4.18-6.67l-3.1-12.67H98.86z"/>
			</g>
		</g>
		
			<linearGradient id="SVGID_00000159471029527468117920000010337478263872057990_" gradientUnits="userSpaceOnUse" x1="61.0333" y1="6.523" x2="105.1985" y2="21.3487">
			<stop  offset="0" style="stop-color:#FBB03A"/>
			<stop  offset="1" style="stop-color:#F15A26"/>
		</linearGradient>
		<path style="fill:url(#SVGID_00000159471029527468117920000010337478263872057990_);" d="M77.57,4.96c0,0.39-0.03,0.75-0.1,1.08
			c-0.16,0.95-0.52,1.83-1.1,2.62c-0.58,0.79-1.37,1.43-2.36,1.92c-0.99,0.49-2.17,0.73-3.51,0.73H68l-1.06,5.92h-4.02l1.94-11.05
			h4.02l-0.32,1.98h2.16c1.5,0,2.39-0.7,2.65-2.11c0.03-0.25,0.05-0.43,0.05-0.54c0-0.5-0.16-0.89-0.48-1.16
			c-0.32-0.28-0.81-0.41-1.47-0.41h-9.47l0.54-3.2h9.8c1.72,0,3.02,0.38,3.9,1.14C77.13,2.63,77.57,3.66,77.57,4.96z"/>
	</g>
</g>
</svg>
