<?xml version="1.0" encoding="utf-8"?>
<!-- Generator: Adobe Illustrator 26.3.1, SVG Export Plug-In . SVG Version: 6.00 Build 0)  -->
<svg version="1.1" id="Layer_1" xmlns="http://www.w3.org/2000/svg" xmlns:xlink="http://www.w3.org/1999/xlink" x="0px" y="0px"
	 viewBox="0 0 109.27 24" style="enable-background:new 0 0 109.27 24;" xml:space="preserve">
<style type="text/css">
	.st0{fill:#6BBE4A;}
	.st1{fill:#010101;}
</style>
<g>
	<path class="st0" d="M16.73,9.33c0.65,0.47,1.24,1.03,1.75,1.7c-0.31-0.67-0.86-1.69-1.76-2.75C13.56,4.59,9.16,4.1,8.44,4.03
		C7.51,3.94,6.03,3.9,4.23,4.34c0.13-0.78,0.25-1.56,0.38-2.34C4.3,1.99,4,1.99,3.69,1.99c-0.55,0-1.09,0.02-1.62,0.05l-0.81,5.9
		C3.92,7.29,11.95,5.88,16.73,9.33"/>
	<path class="st0" d="M21.3,14.82c0.65,0.47,1.24,1.03,1.75,1.7c-0.31-0.67-0.86-1.69-1.76-2.75c-3.16-3.68-7.56-4.18-8.28-4.25
		C12.08,9.43,10.6,9.39,8.8,9.83c0.13-0.78,0.25-1.56,0.38-2.34C8.87,7.48,8.57,7.48,8.27,7.48c-0.55,0-1.09,0.02-1.62,0.05
		l-0.82,5.9C8.49,12.78,16.52,11.37,21.3,14.82"/>
	<path class="st0" d="M25.98,20.31c0.65,0.47,1.24,1.03,1.75,1.7c-0.31-0.67-0.86-1.69-1.76-2.75c-3.16-3.68-7.56-4.18-8.28-4.25
		c-0.92-0.09-2.41-0.13-4.21,0.31c0.13-0.78,0.25-1.56,0.38-2.34c-0.31-0.01-0.61-0.02-0.91-0.01c-0.55,0-1.09,0.02-1.62,0.05
		l-0.82,5.9C13.17,18.27,21.2,16.86,25.98,20.31"/>
	<g>
		<path class="st1" d="M99.8,14.83h8.96l-2.7-1.67l-2.99-4.17l1.71-1.3H99.8h-3.46l1.67,1.3l-2.94,4.17l-1.63,1.29v0.37h6.2
			l-2.16-1.47l0.32-0.49h2h2.11l0.32,0.49l-2.44,1.44L99.8,14.83L99.8,14.83z M99.8,11.7h-1.3l1.26-1.94l0.04,0.06l1.3,1.88H99.8z"
			/>
		<polygon class="st1" points="93.91,11.14 93.66,7.69 93.44,7.69 93.44,7.69 81.65,7.69 81.41,11.14 84.14,8.96 85.81,8.96 
			85.81,13.16 83.19,14.83 92.12,14.83 89.5,13.16 89.5,8.96 91.17,8.96 93.44,10.77 93.44,10.77 		"/>
		<polygon class="st1" points="31.53,13.42 31.53,11.84 34.3,11.84 36.27,12.81 36.27,9.59 34.3,10.43 31.53,10.43 31.53,8.87 
			36.57,8.87 39.25,10.78 39.25,7.69 25.22,7.69 27.84,9.35 27.84,13.18 25.22,14.83 39.46,14.83 39.46,11.37 36.57,13.42 		"/>
		<polygon class="st1" points="93.44,14.83 93.44,14.46 92.96,14.83 		"/>
		<polygon class="st1" points="81.07,7.69 72.26,7.69 74.88,9.35 74.88,13.16 72.26,14.83 81.07,14.83 78.45,13.16 78.45,9.35 		"/>
		<polygon class="st1" points="67.79,9.24 65.69,12.39 62.96,9.24 65.41,7.69 56.53,7.69 56.43,7.69 48.67,7.69 50.5,9.12 
			46.39,11.2 46.39,9.24 48.29,7.69 40.08,7.69 42.7,9.35 42.7,13.16 40.08,14.83 48.37,14.83 46.39,13.16 46.39,12.87 49.18,11.6 
			50.65,13.28 48.49,14.83 56.65,14.83 54.22,13.16 51.73,10.26 56.48,7.72 59.05,9.35 62.57,13.64 60.91,14.83 68.98,14.83 
			67.2,13.64 70.17,9 72.2,7.69 65.57,7.69 		"/>
	</g>
</g>
</svg>
