<svg width="22" height="22" viewBox="0 0 22 22" fill="none" xmlns="http://www.w3.org/2000/svg">
<path d="M19.4092 14.2841C19.4092 17.4956 17.4947 19.4101 14.2832 19.4101H13.2333C12.748 19.4101 12.351 19.0131 12.351 18.5278V13.4371C12.351 13.1989 12.5451 12.996 12.7833 12.996L14.3361 12.9695C14.4597 12.9607 14.5655 12.8725 14.592 12.7489L14.9008 11.0638C14.9273 10.905 14.8037 10.755 14.6361 10.755L12.7569 10.7814C12.5098 10.7814 12.3157 10.5873 12.3069 10.3491L12.2716 8.18754C12.2716 8.04638 12.3863 7.92287 12.5363 7.92287L14.6537 7.88757C14.8037 7.88757 14.9184 7.77288 14.9184 7.6229L14.8831 5.50541C14.8831 5.35542 14.7685 5.24074 14.6185 5.24074L12.2363 5.27603C10.7717 5.3025 9.60714 6.50239 9.63361 7.96697L9.67771 10.3932C9.68653 10.6403 9.49244 10.8344 9.2454 10.8432L8.18666 10.8608C8.03667 10.8608 7.92198 10.9755 7.92198 11.1255L7.94845 12.8019C7.94845 12.9519 8.06314 13.0665 8.21312 13.0665L9.27187 13.0489C9.51891 13.0489 9.71299 13.243 9.72181 13.4812L9.80121 18.5102C9.81004 19.0043 9.41301 19.4101 8.91894 19.4101H6.88971C3.67821 19.4101 1.76367 17.4956 1.76367 14.2753V6.89059C1.76367 3.6791 3.67821 1.76456 6.88971 1.76456H14.2832C17.4947 1.76456 19.4092 3.6791 19.4092 6.89059V14.2841V14.2841Z" fill="black"/>
</svg>
