<svg width="242" height="59" viewBox="0 0 242 59" fill="none" xmlns="http://www.w3.org/2000/svg">
<g clip-path="url(#clip0_101_342)" filter="url(#filter0_d_101_342)">
<path d="M75.8905 17.0694C75.1089 17.0572 74.3328 17.2031 73.6097 17.4984C72.8866 17.7937 72.2315 18.2321 71.6844 18.787C71.1236 19.3301 70.6809 19.9818 70.3836 20.7016C70.0863 21.4215 69.9407 22.1943 69.9558 22.9723C69.9408 23.7494 70.0865 24.5213 70.3838 25.2402C70.6811 25.9591 71.1238 26.6098 71.6844 27.1518C72.2299 27.7089 72.8846 28.1487 73.6081 28.4442C74.3316 28.7396 75.1085 28.8844 75.8905 28.8694C76.6707 28.8828 77.4453 28.7373 78.1667 28.4419C78.8881 28.1465 79.541 27.7075 80.0851 27.1518C80.6433 26.6115 81.0846 25.9637 81.3818 25.2479C81.679 24.5322 81.826 23.7636 81.8137 22.9894C81.826 22.2152 81.679 21.4467 81.3818 20.731C81.0846 20.0152 80.6433 19.3673 80.0851 18.8271C79.541 18.2714 78.8881 17.8324 78.1667 17.537C77.4453 17.2416 76.6707 17.0961 75.8905 17.1095V17.0694ZM81.6524 28.4286C80.9184 29.2155 80.0262 29.8402 79.0336 30.2624C78.041 30.6845 76.9701 30.8946 75.8905 30.8791C74.8483 30.8881 73.8153 30.685 72.8551 30.2823C71.8948 29.8795 71.0278 29.2857 70.3073 28.5374C69.555 27.8212 68.9583 26.9594 68.5539 26.0052C68.1496 25.051 67.9463 24.0247 67.9565 22.9894C67.9387 21.9472 68.1383 20.9126 68.5429 19.9508C68.9475 18.989 69.5483 18.121 70.3073 17.4014C71.0341 16.6648 71.9035 16.0822 72.863 15.6886C73.8226 15.295 74.8525 15.0986 75.8905 15.1113C76.9701 15.0957 78.041 15.3058 79.0336 15.728C80.0262 16.1501 80.9184 16.7749 81.6524 17.5618L83.8591 15.5121V30.4497L81.6524 28.4286Z" fill="#A6A6A6"/>
<path d="M91.6894 28.3884H98.304V30.398H88.4513L94.8815 17.4701H88.5608V15.4604H98.1197L91.6894 28.3884Z" fill="#A6A6A6"/>
<path d="M110.882 28.8636C111.603 28.867 112.318 28.737 112.991 28.48C113.65 28.2375 114.256 27.8721 114.777 27.4037C115.297 26.9383 115.734 26.3884 116.068 25.7776C116.417 25.1473 116.653 24.4615 116.765 23.7508H104.982C105.073 24.4643 105.304 25.153 105.662 25.7776C106.004 26.3883 106.444 26.9394 106.964 27.4094C107.486 27.8766 108.092 28.2418 108.75 28.4858C109.437 28.7449 110.165 28.8749 110.899 28.8694L110.882 28.8636ZM110.899 15.0654C111.948 15.0591 112.987 15.2717 113.948 15.6895C114.889 16.0975 115.744 16.6805 116.465 17.4071C117.198 18.1297 117.785 18.9848 118.194 19.9263C118.611 20.9019 118.823 21.9522 118.816 23.0123C118.821 24.0611 118.609 25.0997 118.194 26.0639C117.787 27.0018 117.2 27.8517 116.465 28.5659C115.738 29.2752 114.884 29.8441 113.948 30.2435C112.979 30.6533 111.935 30.858 110.882 30.8446C109.815 30.8502 108.758 30.6378 107.777 30.2206C106.833 29.8242 105.973 29.2552 105.241 28.543C104.505 27.8303 103.917 26.98 103.513 26.041C103.098 25.0768 102.886 24.0382 102.891 22.9894V22.7718L102.925 22.2966L103 21.8214H116.644C116.502 21.1534 116.256 20.5119 115.912 19.9205C115.576 19.3447 115.139 18.8329 114.622 18.409C114.105 17.9806 113.521 17.6401 112.893 17.4014C112.247 17.1596 111.561 17.0374 110.871 17.0407C109.838 17.0278 108.821 17.2908 107.926 17.8021C107.079 18.2826 106.361 18.9604 105.835 19.7774H103.53C104.143 18.3946 105.143 17.216 106.411 16.3822C107.723 15.5004 109.276 15.0406 110.859 15.0654" fill="#A6A6A6"/>
<path d="M131.285 15.4262L130.369 17.2125C130.023 17.1118 129.663 17.0635 129.303 17.0694C128.785 17.0542 128.269 17.1484 127.791 17.3458C127.312 17.5432 126.881 17.8393 126.526 18.2144C126.175 18.5716 125.898 18.9943 125.712 19.4581C125.526 19.9219 125.435 20.4177 125.442 20.9168V30.4096H123.42V15.472L125.114 16.8232C125.649 16.2547 126.298 15.8049 127.02 15.503C127.742 15.2011 128.52 15.0539 129.303 15.0712C129.982 15.0601 130.656 15.1847 131.285 15.4376" fill="#A6A6A6"/>
<path d="M145.649 30.398H143.183L137.928 22.9149V30.398H135.906V15.4604H137.928V22.3996L142.232 15.4604H144.618L140.17 22.6172L145.649 30.398Z" fill="#A6A6A6"/>
<path d="M157.657 17.0693C156.874 17.0563 156.097 17.2019 155.373 17.4972C154.649 17.7925 153.993 18.2314 153.445 18.787C152.886 19.3313 152.444 19.9832 152.147 20.7027C151.85 21.4223 151.703 22.1945 151.716 22.9722C151.704 23.749 151.851 24.5201 152.148 25.2386C152.445 25.9572 152.887 26.6081 153.445 27.1518C153.992 27.709 154.647 28.1489 155.372 28.4443C156.096 28.7398 156.874 28.8844 157.657 28.8694C158.436 28.8826 159.21 28.7371 159.93 28.4416C160.651 28.1462 161.303 27.7072 161.846 27.1518C162.405 26.6121 162.846 25.9644 163.144 25.2485C163.441 24.5326 163.588 23.7637 163.574 22.9894C163.588 22.2151 163.441 21.4462 163.144 20.7303C162.846 20.0144 162.405 19.3667 161.846 18.827C161.303 18.2716 160.651 17.8326 159.93 17.5372C159.21 17.2417 158.436 17.0962 157.657 17.1094V17.0693ZM157.657 15.0998C158.702 15.0796 159.74 15.2724 160.707 15.6663C161.674 16.0602 162.55 16.6468 163.28 17.3899C164.028 18.1156 164.619 18.9857 165.015 19.9468C165.411 20.9079 165.605 21.9395 165.585 22.978C165.598 24.0094 165.4 25.0328 165.004 25.9863C164.608 26.9398 164.022 27.8037 163.28 28.5259C162.555 29.2767 161.68 29.8703 160.713 30.2693C159.745 30.6683 158.704 30.8642 157.657 30.8447C156.614 30.8538 155.58 30.6508 154.619 30.2481C153.658 29.8454 152.789 29.2515 152.068 28.503C151.316 27.7868 150.719 26.925 150.314 25.9708C149.91 25.0167 149.707 23.9903 149.717 22.955C149.699 21.9128 149.899 20.8782 150.303 19.9164C150.708 18.9546 151.309 18.0866 152.068 17.367C152.796 16.6303 153.666 16.0475 154.627 15.654C155.587 15.2604 156.618 15.0641 157.657 15.0769" fill="#A6A6A6"/>
<path d="M171.428 27.2205C171.637 27.6783 171.981 28.0626 172.413 28.3231C172.846 28.5836 173.348 28.7082 173.853 28.6805C174.208 28.6898 174.561 28.6265 174.89 28.4945C175.219 28.3625 175.517 28.1647 175.766 27.9133C176.024 27.6691 176.228 27.3748 176.366 27.0487C176.503 26.7226 176.572 26.3718 176.567 26.0181C176.575 25.4321 176.387 24.86 176.031 24.3921C175.706 23.9364 175.231 23.6067 174.689 23.4589L172.926 22.9493C172.08 22.7039 171.334 22.1989 170.794 21.5065C170.264 20.8356 169.98 20.0059 169.987 19.1534C169.977 18.6341 170.074 18.1182 170.272 17.6376C170.47 17.157 170.765 16.722 171.14 16.3594C171.505 15.9881 171.943 15.6949 172.426 15.498C172.91 15.3011 173.429 15.2045 173.951 15.2143C174.728 15.2126 175.488 15.4397 176.135 15.867C176.793 16.2868 177.301 16.9018 177.587 17.6247L175.749 18.3919C175.622 18.0285 175.375 17.7182 175.049 17.5105C174.723 17.3029 174.337 17.21 173.951 17.2468C173.691 17.2383 173.431 17.285 173.189 17.3837C172.948 17.4824 172.731 17.6309 172.551 17.8194C172.187 18.1764 171.98 18.6622 171.975 19.1706C171.944 19.6013 172.073 20.0282 172.338 20.3709C172.602 20.7137 172.983 20.9485 173.41 21.0313L175.173 21.5409C176.152 21.7957 177.014 22.3755 177.616 23.1841C178.238 24.0091 178.566 25.0161 178.549 26.0468C178.562 26.8784 178.347 27.6978 177.927 28.4171C177.521 29.1144 176.939 29.6945 176.239 30.1004C175.512 30.5162 174.686 30.7298 173.848 30.7187C172.991 30.7263 172.15 30.492 171.422 30.0431C170.679 29.5819 170.069 28.9368 169.653 28.1709L171.428 27.2205Z" fill="#A6A6A6"/>
<path d="M204.529 30.3981H202.496V20.8653C202.516 20.3507 202.423 19.838 202.224 19.3625C202.025 18.887 201.724 18.4601 201.343 18.1114C200.618 17.431 199.655 17.0574 198.658 17.0694C197.669 17.0651 196.716 17.4381 195.996 18.1114C195.613 18.4589 195.312 18.8855 195.113 19.3613C194.914 19.8371 194.822 20.3505 194.844 20.8653V30.3981H192.821V20.8653C192.841 20.3507 192.749 19.838 192.55 19.3625C192.351 18.887 192.05 18.4601 191.669 18.1114C190.946 17.4319 189.985 17.0583 188.99 17.0694C188.013 17.0738 187.074 17.4462 186.362 18.1114C185.979 18.4589 185.678 18.8855 185.479 19.3613C185.28 19.8371 185.188 20.3505 185.21 20.8653V30.3981H183.193V15.4605L184.882 16.7774C185.419 16.2242 186.065 15.7864 186.78 15.491C187.494 15.1956 188.262 15.0488 189.036 15.0597C190.009 15.0601 190.966 15.298 191.825 15.7525C192.649 16.1761 193.348 16.8056 193.853 17.5789C194.37 16.7848 195.085 16.1361 195.927 15.695C196.77 15.2539 197.712 15.0351 198.664 15.0597C199.467 15.0493 200.263 15.2114 200.997 15.5349C201.668 15.8322 202.279 16.2473 202.801 16.7602C203.315 17.2771 203.731 17.8823 204.028 18.5465C204.352 19.2667 204.515 20.048 204.506 20.8367L204.529 30.3981Z" fill="#A6A6A6"/>
<path d="M217.09 17.0693C216.308 17.0547 215.532 17.1996 214.808 17.4951C214.085 17.7905 213.43 18.2302 212.884 18.7869C212.323 19.3301 211.881 19.9817 211.583 20.7016C211.286 21.4214 211.14 22.1942 211.156 22.9722C211.141 23.7493 211.286 24.5212 211.584 25.2402C211.881 25.9591 212.324 26.6097 212.884 27.1518C213.429 27.7094 214.084 28.1496 214.807 28.4451C215.531 28.7406 216.308 28.885 217.09 28.8694C217.87 28.8826 218.643 28.737 219.364 28.4416C220.084 28.1462 220.736 27.7072 221.279 27.1518C221.838 26.6121 222.28 25.9643 222.577 25.2485C222.875 24.5326 223.021 23.7637 223.008 22.9894C223.021 22.2151 222.875 21.4462 222.577 20.7303C222.28 20.0144 221.838 19.3667 221.279 18.827C220.736 18.2715 220.084 17.8326 219.364 17.5371C218.643 17.2417 217.87 17.0962 217.09 17.1094V17.0693ZM217.09 15.0998C218.135 15.0796 219.173 15.2724 220.141 15.6663C221.108 16.0602 221.984 16.6468 222.714 17.3899C223.462 18.1156 224.052 18.9857 224.448 19.9468C224.845 20.9079 225.039 21.9395 225.019 22.9779C225.031 24.0094 224.834 25.0328 224.438 25.9863C224.041 26.9398 223.455 27.8037 222.714 28.5259C221.988 29.2767 221.114 29.8703 220.146 30.2693C219.178 30.6683 218.138 30.8642 217.09 30.8447C216.048 30.8537 215.015 30.6506 214.055 30.2479C213.095 29.8451 212.228 29.2513 211.507 28.503C210.753 27.7879 210.155 26.9264 209.749 25.9721C209.344 25.0178 209.14 23.9909 209.15 22.955C209.133 21.9123 209.333 20.8772 209.739 19.9153C210.144 18.9534 210.746 18.0857 211.507 17.367C212.234 16.6304 213.103 16.0478 214.063 15.6541C215.022 15.2605 216.052 15.0642 217.09 15.0769" fill="#A6A6A6"/>
<path d="M230.861 27.2204C231.071 27.6778 231.415 28.0616 231.847 28.3221C232.28 28.5825 232.782 28.7073 233.287 28.6804C233.642 28.6901 233.995 28.627 234.324 28.4949C234.653 28.3629 234.951 28.1649 235.2 27.9132C235.452 27.6666 235.651 27.3712 235.784 27.0452C235.916 26.7192 235.98 26.3697 235.972 26.0181C235.979 25.433 235.793 24.8617 235.442 24.3921C235.114 23.9387 234.64 23.6096 234.099 23.4588L232.336 22.9493C231.489 22.7053 230.743 22.2 230.204 21.5065C229.671 20.8375 229.384 20.0069 229.392 19.1533C229.38 18.6339 229.477 18.1177 229.675 17.637C229.873 17.1563 230.169 16.7213 230.544 16.3593C230.908 15.9876 231.345 15.6942 231.828 15.4972C232.31 15.3002 232.828 15.2039 233.35 15.2143C234.129 15.2124 234.891 15.4395 235.54 15.8669C236.197 16.2868 236.705 16.9018 236.992 17.6247L235.154 18.3919C235.026 18.0275 234.779 17.7163 234.452 17.5086C234.125 17.3009 233.737 17.2087 233.35 17.2468C233.09 17.2384 232.831 17.2851 232.591 17.3838C232.351 17.4825 232.134 17.631 231.956 17.8193C231.775 17.9956 231.631 18.2057 231.532 18.4376C231.433 18.6695 231.381 18.9186 231.38 19.1705C231.349 19.6012 231.478 20.0281 231.742 20.3709C232.007 20.7136 232.388 20.9485 232.814 21.0313L234.577 21.5408C235.572 21.7803 236.451 22.3549 237.067 23.1668C237.693 23.9899 238.024 24.9978 238.006 26.0295C238.017 26.8617 237.8 27.6811 237.378 28.3999C236.972 29.0971 236.39 29.6773 235.69 30.0831C234.963 30.5003 234.137 30.714 233.298 30.7015C232.442 30.7085 231.601 30.4742 230.873 30.0259C230.135 29.5719 229.528 28.937 229.109 28.1823L230.861 27.2204Z" fill="#A6A6A6"/>
<path d="M51.4373 14.0349C42.4277 19.7315 34.9566 27.5308 29.6748 36.7533C35.134 29.875 41.9368 24.1649 49.6742 19.9664C50.4349 22.2808 50.8238 24.6999 50.8265 27.1346C50.8261 33.1557 48.4756 38.9419 44.2696 43.2761C40.0637 47.6103 34.33 50.1547 28.2747 50.3741C28.557 50.3741 28.8508 50.3741 29.1216 50.3741C35.7818 50.3726 42.1686 47.7425 46.8775 43.0623C51.5864 38.3821 54.2318 32.0351 54.2318 25.417C54.2245 22.9879 53.8595 20.5729 53.1485 18.2488C52.7022 16.8024 52.1236 15.3995 51.42 14.0578" fill="#005CB9"/>
<path d="M35.6498 5.38377C27.8209 11.5787 21.2007 19.1467 16.1172 27.7129C23.4225 18.2216 32.7435 10.4472 43.4168 4.94292C43.1229 4.7368 42.8406 4.54214 42.5122 4.37038L42.2759 4.22152C42.0339 4.07266 41.7919 3.92952 41.5499 3.79211L41.3137 3.66042C41.0199 3.50011 40.7375 3.34553 40.4264 3.19094L40.363 3.15659C36.8726 1.40921 33.0185 0.499333 29.1101 0.5C22.4505 0.5 16.0636 3.1288 11.3546 7.80808C6.64552 12.4874 4 18.8338 4 25.4513C4 25.7376 4 26.0239 4 26.3044C4.21928 20.2859 6.77905 14.5864 11.1408 10.4048C15.5026 6.22332 21.3265 3.88571 27.3873 3.88372C30.2025 3.88429 32.9942 4.39255 35.6268 5.38377" fill="#005CB9"/>
<path d="M41.7401 15.3231C43.804 13.9087 45.9428 12.6052 48.1473 11.4184C49.2535 10.823 50.3733 10.26 51.5064 9.72941C52.0826 9.46604 52.6588 9.20839 53.235 8.95648C53.5477 8.86506 53.8149 8.66087 53.984 8.38393C54.1012 8.1933 54.1905 7.98701 54.2491 7.77132C54.3323 7.46906 54.3749 7.15718 54.3758 6.8438L54.1626 6.34569C53.9347 6.12345 53.6791 5.93105 53.4021 5.77315C53.2054 5.66488 52.9938 5.58579 52.774 5.53841C52.4262 5.47493 52.067 5.53577 51.7599 5.71017C51.1838 5.98499 50.5672 6.28271 49.9795 6.55753C48.7964 7.13389 47.6325 7.7446 46.4878 8.38966C44.1937 9.67661 41.9721 11.0872 39.8329 12.615C35.568 15.684 31.6655 19.2218 28.1998 23.1612C26.4877 25.1271 24.8891 27.1877 23.4117 29.3332C21.9467 31.4785 20.6003 33.7013 19.3784 35.9919C16.9691 40.5564 15.1346 45.3984 13.9161 50.4084C15.7726 45.6678 18.0883 41.1176 20.8304 36.822C22.1844 34.6904 23.6519 32.632 25.2267 30.6558C26.7918 28.6796 28.4572 26.784 30.2164 24.9762C33.7117 21.3715 37.5736 18.1366 41.7401 15.3231Z" fill="#005CB9"/>
<path d="M140.423 42.6562C140.152 42.6339 139.879 42.6711 139.624 42.7653C139.369 42.8594 139.138 43.0082 138.947 43.2011C138.756 43.394 138.61 43.6262 138.52 43.8813C138.429 44.1364 138.397 44.4082 138.424 44.6773V44.9979H137.513V46.3033H138.424V50.4027H139.772V46.3033H141.604V45.0208H139.772V44.7345C139.772 44.0818 140.072 43.9559 140.613 43.9559C140.927 43.956 141.238 44.0224 141.524 44.1505L141.91 44.3395V42.9883L141.743 42.9196C141.321 42.7602 140.874 42.6787 140.423 42.6791" fill="#A6A6A6"/>
<path d="M146.364 48.3072C146.299 48.5461 146.16 48.7585 145.966 48.9141C145.696 49.1249 145.359 49.2344 145.015 49.2233C144.822 49.2406 144.627 49.2111 144.447 49.1373C144.268 49.0635 144.109 48.9477 143.984 48.7996C143.871 48.6571 143.8 48.4869 143.777 48.3072H146.364ZM144.791 44.8719C144.15 44.8473 143.513 44.979 142.935 45.2555L142.797 45.33V46.7327L143.195 46.5094C143.646 46.263 144.155 46.1387 144.67 46.1487C145.086 46.1315 145.498 46.235 145.857 46.4464C146.087 46.5872 146.261 46.804 146.346 47.0591H142.572L142.526 47.2652C142.428 47.6299 142.408 48.0109 142.468 48.3837C142.527 48.7565 142.665 49.1128 142.872 49.4294C143.111 49.7799 143.439 50.0621 143.822 50.2479C144.205 50.4337 144.63 50.5167 145.056 50.4886C145.733 50.4984 146.389 50.2459 146.882 49.7843C147.17 49.5151 147.396 49.1876 147.545 48.8241C147.694 48.4606 147.763 48.0696 147.746 47.6774C147.766 47.2794 147.694 46.8823 147.538 46.5156C147.381 46.1488 147.143 45.8219 146.842 45.559C146.261 45.0889 145.528 44.8448 144.779 44.8719" fill="#A6A6A6"/>
<path d="M150.483 45.433V44.9978H149.216V50.3797H150.564V47.1449C150.706 46.8208 150.954 46.5542 151.268 46.3888C151.582 46.2234 151.943 46.169 152.293 46.2345L152.592 46.2689V44.9177H152.35C151.685 44.8622 151.023 45.0517 150.489 45.4501" fill="#A6A6A6"/>
<path d="M156.09 49.2233C155.89 49.2263 155.692 49.1879 155.509 49.1106C155.325 49.0333 155.16 48.9188 155.023 48.7744C154.886 48.63 154.781 48.4589 154.715 48.272C154.649 48.0851 154.622 47.8865 154.638 47.6889C154.622 47.4913 154.649 47.2927 154.715 47.1058C154.781 46.9189 154.886 46.7477 155.023 46.6034C155.16 46.459 155.325 46.3445 155.509 46.2672C155.692 46.1899 155.89 46.1515 156.09 46.1545C156.412 46.1602 156.727 46.2554 156.997 46.4295C157.268 46.6035 157.485 46.8494 157.622 47.1392V48.2385C157.485 48.5284 157.268 48.7743 156.997 48.9483C156.727 49.1223 156.412 49.2176 156.09 49.2233ZM157.622 45.3815C157.149 45.0455 156.579 44.869 155.997 44.8777C155.632 44.8773 155.27 44.9507 154.933 45.0935C154.597 45.2362 154.293 45.4454 154.04 45.7082C153.788 45.971 153.591 46.2821 153.463 46.6226C153.335 46.963 153.278 47.3258 153.295 47.6889C153.278 48.052 153.335 48.4147 153.463 48.7552C153.591 49.0957 153.788 49.4067 154.04 49.6696C154.293 49.9324 154.597 50.1416 154.933 50.2843C155.27 50.4271 155.632 50.5005 155.997 50.5001C156.623 50.5172 157.236 50.3145 157.726 49.9275V50.3856H158.994V42.7765H157.645L157.622 45.3815Z" fill="#A6A6A6"/>
<path d="M162.168 44.9979H160.82V50.3798H162.168V44.9979Z" fill="#A6A6A6"/>
<path d="M161.494 42.9367C161.389 42.9327 161.285 42.9503 161.187 42.9882C161.089 43.0261 161 43.0837 160.925 43.1572C160.851 43.2308 160.792 43.3188 160.753 43.4158C160.714 43.5128 160.696 43.6167 160.699 43.7211C160.695 43.8254 160.713 43.9295 160.751 44.0266C160.79 44.1237 160.849 44.2117 160.923 44.285C160.998 44.3583 161.088 44.4153 161.186 44.4523C161.284 44.4892 161.389 44.5054 161.494 44.4997C161.599 44.5054 161.704 44.4892 161.802 44.4523C161.901 44.4153 161.99 44.3583 162.065 44.285C162.14 44.2117 162.198 44.1237 162.237 44.0266C162.276 43.9295 162.294 43.8254 162.289 43.7211C162.293 43.6167 162.274 43.5128 162.235 43.4158C162.196 43.3188 162.138 43.2308 162.063 43.1572C161.989 43.0837 161.9 43.0261 161.802 42.9882C161.704 42.9503 161.599 42.9327 161.494 42.9367Z" fill="#A6A6A6"/>
<path d="M173.427 44.8776C172.787 44.8909 172.174 45.1328 171.698 45.559C171.499 45.3332 171.251 45.1548 170.973 45.0369C170.694 44.9189 170.393 44.8645 170.091 44.8776C169.588 44.8799 169.099 45.038 168.691 45.33V44.9979H167.423V50.3798H168.771V46.8758C168.909 46.6729 169.09 46.5035 169.303 46.3806C169.516 46.2576 169.753 46.1842 169.999 46.1659C170.123 46.1586 170.247 46.1788 170.362 46.2252C170.477 46.2716 170.58 46.3429 170.664 46.434C170.748 46.525 170.811 46.6335 170.847 46.7515C170.883 46.8696 170.893 46.9942 170.875 47.1163V50.3912H172.223V47.1335C172.232 47.0172 172.232 46.9005 172.223 46.7842C172.359 46.6052 172.533 46.4574 172.731 46.3507C172.93 46.244 173.15 46.181 173.375 46.1659C173.951 46.1659 174.245 46.5151 174.245 47.1163V50.3912H175.594V47.1335C175.623 46.8428 175.589 46.5493 175.494 46.2729C175.399 45.9964 175.246 45.7432 175.044 45.5306C174.843 45.3179 174.598 45.1506 174.326 45.0399C174.054 44.9293 173.761 44.8779 173.467 44.8891" fill="#A6A6A6"/>
<path d="M180.819 44.7002C180.928 44.701 181.036 44.6803 181.137 44.6395C181.237 44.5987 181.329 44.5385 181.406 44.4624C181.483 44.3863 181.544 44.2958 181.586 44.1961C181.628 44.0964 181.649 43.9895 181.649 43.8815C181.646 43.6643 181.558 43.4569 181.402 43.3038C181.247 43.1508 181.038 43.0642 180.819 43.0627C180.607 43.0729 180.406 43.1633 180.259 43.3155C180.111 43.4676 180.027 43.6701 180.024 43.8815C180.024 44.0986 180.111 44.3069 180.266 44.4604C180.42 44.614 180.63 44.7002 180.848 44.7002" fill="#A6A6A6"/>
<path d="M178.768 44.7002C178.987 44.7002 179.196 44.614 179.351 44.4604C179.505 44.3069 179.592 44.0986 179.592 43.8815C179.591 43.6648 179.503 43.4574 179.349 43.3042C179.195 43.151 178.986 43.0642 178.768 43.0627C178.55 43.0642 178.341 43.151 178.187 43.3042C178.033 43.4574 177.946 43.6648 177.944 43.8815C177.944 44.0986 178.031 44.3069 178.186 44.4604C178.34 44.614 178.55 44.7002 178.768 44.7002Z" fill="#A6A6A6"/>
<path d="M180.969 48.4332C180.828 48.6591 180.635 48.8485 180.405 48.9859C180.176 49.1232 179.917 49.2046 179.65 49.2233C178.93 49.2233 178.607 48.8912 178.607 48.1526V44.9979H177.259V48.2557C177.24 48.5591 177.288 48.8629 177.398 49.1465C177.508 49.4302 177.678 49.687 177.896 49.8998C178.115 50.1126 178.377 50.2762 178.664 50.3798C178.952 50.4833 179.258 50.5243 179.563 50.5C180.098 50.4969 180.618 50.3266 181.05 50.0134V50.3798H182.329V44.9979H180.981L180.969 48.4332Z" fill="#A6A6A6"/>
<path d="M189.243 44.998H187.63L186.086 47.019H185.498V42.7765H184.15V50.3798H185.498V48.2958H186.063L187.849 50.3798H189.508L187.198 47.6717L189.243 44.998Z" fill="#A6A6A6"/>
<path d="M193.887 48.3071C193.823 48.5476 193.681 48.7606 193.484 48.914C193.213 49.1248 192.877 49.2343 192.533 49.2232C192.341 49.2405 192.147 49.211 191.968 49.1372C191.789 49.0634 191.631 48.9475 191.508 48.7995C191.393 48.6584 191.321 48.4875 191.3 48.3071H193.887ZM192.309 44.8718C191.67 44.8476 191.035 44.9793 190.459 45.2554L190.315 45.3299V46.7326L190.713 46.5093C191.164 46.2629 191.673 46.1386 192.188 46.1486C192.604 46.1304 193.017 46.2339 193.375 46.4463C193.607 46.586 193.783 46.803 193.87 47.0589H190.108L190.056 47.2651C189.958 47.6298 189.938 48.0108 189.997 48.3836C190.057 48.7564 190.195 49.1127 190.401 49.4293C190.641 49.7794 190.969 50.0612 191.352 50.247C191.735 50.4328 192.16 50.516 192.585 50.4885C193.267 50.5071 193.93 50.2583 194.429 49.7957C194.717 49.5267 194.944 49.1994 195.094 48.836C195.244 48.4725 195.314 48.0813 195.299 47.6887C195.319 47.2902 195.247 46.8924 195.089 46.5254C194.932 46.1584 194.692 45.8318 194.389 45.5703C193.808 45.0994 193.075 44.8551 192.326 44.8833" fill="#A6A6A6"/>
<path d="M202.749 44.8776C202.109 44.8909 201.496 45.1328 201.02 45.559C200.822 45.3333 200.575 45.1549 200.298 45.037C200.02 44.919 199.72 44.8646 199.419 44.8776C198.916 44.8787 198.426 45.037 198.019 45.3299V44.9979H196.734V50.3797H198.082V46.8758C198.218 46.672 198.4 46.502 198.612 46.3789C198.825 46.2558 199.064 46.1829 199.309 46.1658C199.885 46.1658 200.179 46.5151 200.179 47.1163V50.3912H201.528V47.1334C201.534 47.0171 201.534 46.9005 201.528 46.7842C201.663 46.6041 201.836 46.4554 202.035 46.3487C202.234 46.2419 202.454 46.1795 202.68 46.1658C203.256 46.1658 203.55 46.5151 203.55 47.1163V50.3912H204.898V47.1334C204.927 46.8428 204.893 46.5493 204.799 46.2728C204.704 45.9963 204.551 45.7432 204.349 45.5306C204.148 45.3179 203.903 45.1506 203.631 45.0399C203.359 44.9293 203.066 44.8778 202.772 44.8891" fill="#A6A6A6"/>
<path d="M212.654 44.8776C212.014 44.8898 211.4 45.1318 210.925 45.5589C210.725 45.3338 210.477 45.1558 210.199 45.0379C209.921 44.9201 209.62 44.8653 209.318 44.8776C208.815 44.8787 208.325 45.0369 207.917 45.3299V44.9978H206.65V50.3797H207.998V46.8758C208.135 46.6722 208.316 46.5025 208.529 46.3794C208.742 46.2563 208.98 46.1833 209.225 46.1658C209.802 46.1658 210.095 46.5151 210.095 47.1162V50.3912H211.444V47.1334C211.45 47.0171 211.45 46.9005 211.444 46.7842C211.58 46.6052 211.753 46.4573 211.952 46.3507C212.151 46.244 212.371 46.1809 212.596 46.1658C212.716 46.1641 212.836 46.188 212.946 46.2359C213.056 46.2839 213.154 46.3547 213.235 46.4437C213.315 46.5327 213.375 46.6377 213.411 46.7518C213.447 46.8658 213.458 46.9862 213.443 47.1048V50.3797H214.791V47.122C214.82 46.8308 214.786 46.5368 214.691 46.2599C214.596 45.983 214.442 45.7296 214.24 45.5168C214.038 45.3041 213.792 45.1369 213.52 45.0266C213.247 44.9163 212.954 44.8655 212.659 44.8776" fill="#A6A6A6"/>
<path d="M220.133 48.3071C220.068 48.5476 219.926 48.7606 219.729 48.914C219.459 49.1248 219.122 49.2343 218.779 49.2232C218.586 49.2405 218.392 49.211 218.213 49.1372C218.034 49.0634 217.876 48.9475 217.753 48.7995C217.638 48.6584 217.566 48.4875 217.545 48.3071H220.133ZM218.554 44.8718C217.915 44.8476 217.28 44.9793 216.704 45.2554L216.56 45.3299V46.7326L216.958 46.5093C217.409 46.2629 217.918 46.1386 218.433 46.1486C218.849 46.1304 219.262 46.2339 219.62 46.4463C219.852 46.586 220.028 46.803 220.115 47.0589H216.324L216.278 47.2651C216.18 47.6298 216.16 48.0108 216.22 48.3836C216.279 48.7564 216.417 49.1127 216.624 49.4293C216.863 49.7794 217.191 50.0612 217.574 50.247C217.957 50.4328 218.382 50.516 218.807 50.4885C219.485 50.4995 220.141 50.2468 220.634 49.7842C220.922 49.517 221.149 49.1919 221.3 48.8305C221.451 48.4691 221.522 48.0798 221.51 47.6887C221.529 47.2902 221.458 46.8924 221.3 46.5254C221.142 46.1584 220.903 45.8318 220.599 45.5703C220.019 45.0994 219.285 44.8551 218.537 44.8833" fill="#A6A6A6"/>
<path d="M224.35 42.4729H223.002V50.3797H224.35V42.4729Z" fill="#A6A6A6"/>
<path d="M227.571 42.4729H226.223V50.3797H227.571V42.4729Z" fill="#A6A6A6"/>
<path d="M230.118 42.9367C230.013 42.9327 229.908 42.9503 229.81 42.9882C229.712 43.0261 229.623 43.0837 229.549 43.1572C229.474 43.2308 229.416 43.3188 229.377 43.4158C229.338 43.5128 229.319 43.6167 229.323 43.7211C229.318 43.8254 229.336 43.9295 229.375 44.0266C229.414 44.1237 229.472 44.2117 229.547 44.285C229.622 44.3583 229.711 44.4153 229.81 44.4523C229.908 44.4892 230.013 44.5054 230.118 44.4997C230.223 44.5054 230.328 44.4892 230.426 44.4523C230.524 44.4153 230.614 44.3583 230.688 44.285C230.763 44.2117 230.822 44.1237 230.861 44.0266C230.899 43.9295 230.917 43.8254 230.913 43.7211C230.916 43.6167 230.898 43.5128 230.859 43.4158C230.82 43.3188 230.761 43.2308 230.687 43.1572C230.612 43.0837 230.523 43.0261 230.425 42.9882C230.327 42.9503 230.223 42.9327 230.118 42.9367Z" fill="#A6A6A6"/>
<path d="M230.792 44.9979H229.444V50.3798H230.792V44.9979Z" fill="#A6A6A6"/>
<path d="M235.695 47.6717L237.741 44.998H236.127L234.577 47.019H233.996V42.7765H232.647V50.3798H233.996V48.2958H234.56L236.346 50.3798H238L235.695 47.6717Z" fill="#A6A6A6"/>
</g>
<defs>
<filter id="filter0_d_101_342" x="0" y="0.5" width="242" height="58" filterUnits="userSpaceOnUse" color-interpolation-filters="sRGB">
<feFlood flood-opacity="0" result="BackgroundImageFix"/>
<feColorMatrix in="SourceAlpha" type="matrix" values="0 0 0 0 0 0 0 0 0 0 0 0 0 0 0 0 0 0 127 0" result="hardAlpha"/>
<feOffset dy="4"/>
<feGaussianBlur stdDeviation="2"/>
<feComposite in2="hardAlpha" operator="out"/>
<feColorMatrix type="matrix" values="0 0 0 0 0 0 0 0 0 0 0 0 0 0 0 0 0 0 0.25 0"/>
<feBlend mode="normal" in2="BackgroundImageFix" result="effect1_dropShadow_101_342"/>
<feBlend mode="normal" in="SourceGraphic" in2="effect1_dropShadow_101_342" result="shape"/>
</filter>
<clipPath id="clip0_101_342">
<rect width="234" height="50" fill="white" transform="translate(4 0.5)"/>
</clipPath>
</defs>
</svg>
