<svg width="22" height="22" viewBox="0 0 22 22" fill="none" xmlns="http://www.w3.org/2000/svg">
<path d="M19.8003 19.8V13.354C19.8003 10.186 19.1183 7.76599 15.4223 7.76599C13.6403 7.76599 12.4523 8.73399 11.9683 9.65799H11.9243V8.05199H8.42627V19.8H12.0783V13.97C12.0783 12.43 12.3643 10.956 14.2563 10.956C16.1263 10.956 16.1483 12.694 16.1483 14.058V19.778H19.8003V19.8Z" fill="black"/>
<path d="M2.48633 8.052H6.13833V19.8H2.48633V8.052Z" fill="black"/>
<path d="M4.3122 2.20001C3.1462 2.20001 2.2002 3.14601 2.2002 4.31201C2.2002 5.47801 3.1462 6.44601 4.3122 6.44601C5.4782 6.44601 6.4242 5.47801 6.4242 4.31201C6.4242 3.14601 5.4782 2.20001 4.3122 2.20001Z" fill="black"/>
</svg>
