<svg width="166" height="39" viewBox="0 0 166 39" fill="none" xmlns="http://www.w3.org/2000/svg">
<g clip-path="url(#clip0_133_136)">
<path d="M14.9663 35.387C14.7848 35.387 14.6032 35.3839 14.4217 35.3763C11.9291 35.2794 9.59037 34.4176 7.80249 32.9679C7.17318 32.4585 7.18087 31.489 7.78402 30.9488C8.27792 30.5071 9.00876 30.504 9.52575 30.9181C10.8628 31.9891 12.6276 32.6278 14.5278 32.7C17.2358 32.8064 20.2392 31.8844 22.3657 30.2932C23.9503 29.1083 25.5691 26.9523 25.6152 24.8056C25.6382 23.7113 25.3182 22.9142 24.6366 22.3679C23.6059 21.5416 21.7286 21.3061 19.8546 21.7678C19.2545 21.9155 18.6329 22.1033 17.9759 22.3033C15.2433 23.1312 12.146 24.0699 9.1857 22.4326C8.56564 22.0894 8.0102 21.697 7.51938 21.2646C5.40222 21.7231 3.36815 22.0694 1.54026 22.3494C0.803255 22.4618 0.120104 21.954 0.0139382 21.2169C-0.0906888 20.4905 0.40475 19.8149 1.12945 19.7057C2.54653 19.4887 4.08823 19.2317 5.69302 18.9116C4.78677 17.0865 4.70368 14.9628 5.57762 12.896C7.20395 9.04574 10.5874 5.85868 14.6263 4.3675C18.4313 2.96402 23.4381 3.2841 25.3289 7.34525C25.9167 8.60716 26.0538 10.0706 25.6736 11.411C24.369 16.0108 18.4021 18.0283 14.5217 19.3394L14.234 19.4364C13.2031 19.7857 12.1645 20.0996 11.129 20.3828C12.9492 21.0276 15.0202 20.4013 17.1974 19.7411C17.859 19.541 18.5437 19.3333 19.213 19.1686C21.3255 18.6484 24.2966 18.6684 26.3091 20.2797C27.2416 21.026 28.3417 22.4279 28.2909 24.8639C28.22 28.1203 25.9183 30.978 23.9688 32.4369C21.4778 34.3022 18.1498 35.387 14.9663 35.387ZM18.7514 6.30342C17.6097 6.30342 16.4542 6.54658 15.5541 6.87897C12.1953 8.11779 9.38727 10.757 8.04251 13.9379C7.39322 15.4737 7.56862 17.0295 8.45025 18.3084C10.0827 17.9175 11.746 17.4558 13.3785 16.9033L13.6677 16.8048C16.6958 15.7815 21.7656 14.0672 22.9673 11.0755C23.3104 10.2184 23.2719 9.21349 22.861 8.38555C22.0917 6.83282 20.4362 6.30496 18.7529 6.30496L18.7514 6.30342Z" fill="white"/>
<path d="M48.8355 20.8535C48.8355 21.3043 48.8094 21.7811 48.7575 22.284H37.3681C37.4548 23.6884 37.9316 24.7893 38.7984 25.5869C39.6823 26.3671 40.7485 26.7571 41.9967 26.7571C43.0194 26.7571 43.8688 26.5231 44.5449 26.0551C45.2383 25.5695 45.7238 24.9281 46.001 24.1305H48.5494C48.1679 25.5002 47.4052 26.6185 46.261 27.4854C45.1171 28.3349 43.6955 28.7597 41.9967 28.7597C40.6444 28.7597 39.4309 28.4564 38.3563 27.8496C37.2988 27.2427 36.4668 26.3845 35.86 25.2749C35.2533 24.1479 34.9498 22.8475 34.9498 21.3737C34.9498 19.8999 35.2446 18.6083 35.834 17.4986C36.4233 16.389 37.2469 15.5394 38.3041 14.9499C39.379 14.343 40.6099 14.0396 41.9967 14.0396C43.3488 14.0396 44.5449 14.3344 45.585 14.9239C46.6251 15.5134 47.4226 16.3283 47.9774 17.3686C48.5494 18.3915 48.8355 19.5532 48.8355 20.8535ZM46.3911 20.3594C46.3911 19.4578 46.1917 18.6863 45.7931 18.0448C45.3942 17.3859 44.8483 16.8918 44.1549 16.5623C43.4787 16.2156 42.7246 16.0422 41.8926 16.0422C40.6965 16.0422 39.6736 16.4236 38.8242 17.1865C37.9922 17.9494 37.5154 19.007 37.3942 20.3594H46.3911ZM57.0033 28.7597C55.9113 28.7597 54.9318 28.5776 54.065 28.2137C53.1982 27.8322 52.5135 27.312 52.0108 26.6533C51.5079 25.9769 51.2308 25.2054 51.1786 24.3385H53.6229C53.6922 25.0494 54.0216 25.6301 54.6111 26.081C55.2179 26.5318 56.0064 26.7571 56.9772 26.7571C57.8788 26.7571 58.5896 26.5579 59.1096 26.159C59.6297 25.7603 59.8897 25.2575 59.8897 24.6507C59.8897 24.0265 59.6123 23.5669 59.0575 23.2723C58.5029 22.9601 57.6448 22.6568 56.4833 22.3619C55.4258 22.0846 54.559 21.8072 53.883 21.5297C53.2243 21.235 52.6521 20.8102 52.1668 20.2554C51.6987 19.6832 51.4647 18.9377 51.4647 18.0188C51.4647 17.2906 51.6813 16.623 52.1147 16.0162C52.5481 15.4093 53.1635 14.9325 53.961 14.5858C54.7584 14.2217 55.6684 14.0396 56.6914 14.0396C58.2687 14.0396 59.543 14.4384 60.5136 15.236C61.4844 16.0335 62.0045 17.1258 62.0738 18.5129H59.7077C59.6555 17.7674 59.3523 17.1692 58.7975 16.7184C58.26 16.2676 57.5321 16.0422 56.6132 16.0422C55.7638 16.0422 55.0877 16.2242 54.5851 16.5884C54.0824 16.9525 53.831 17.4293 53.831 18.0188C53.831 18.4869 53.9783 18.877 54.2729 19.1891C54.5851 19.4838 54.9663 19.7266 55.4171 19.9173C55.8852 20.0907 56.5265 20.2901 57.3413 20.5155C58.3641 20.7929 59.1963 21.0703 59.8376 21.3477C60.4791 21.6078 61.025 22.0065 61.4757 22.544C61.9439 23.0815 62.1865 23.7838 62.2039 24.6507C62.2039 25.4309 61.9871 26.1331 61.5537 26.7571C61.1203 27.3813 60.5049 27.8756 59.7077 28.2396C58.9276 28.5863 58.0261 28.7597 57.0033 28.7597ZM71.7588 28.7597C70.4241 28.7597 69.2107 28.4564 68.1184 27.8496C67.0438 27.2427 66.1944 26.3845 65.5703 25.2749C64.9635 24.1479 64.66 22.8475 64.66 21.3737C64.66 19.9173 64.9722 18.6343 65.5963 17.5246C66.2376 16.3976 67.1044 15.5394 68.1966 14.9499C69.2887 14.343 70.5108 14.0396 71.8629 14.0396C73.2152 14.0396 74.4371 14.343 75.5294 14.9499C76.6214 15.5394 77.4795 16.389 78.1036 17.4986C78.7451 18.6083 79.0657 19.8999 79.0657 21.3737C79.0657 22.8475 78.7364 24.1479 78.0775 25.2749C77.4362 26.3845 76.5608 27.2427 75.4514 27.8496C74.342 28.4564 73.1111 28.7597 71.7588 28.7597ZM71.7588 26.6791C72.6084 26.6791 73.4057 26.4799 74.1512 26.081C74.8966 25.6823 75.4946 25.0841 75.9454 24.2865C76.4135 23.4889 76.6475 22.5179 76.6475 21.3737C76.6475 20.2294 76.422 19.2584 75.9714 18.4609C75.5207 17.6633 74.9313 17.0738 74.2031 16.6924C73.4752 16.2936 72.6864 16.0942 71.8368 16.0942C70.97 16.0942 70.1728 16.2936 69.4446 16.6924C68.7338 17.0738 68.1619 17.6633 67.7285 18.4609C67.2951 19.2584 67.0783 20.2294 67.0783 21.3737C67.0783 22.5353 67.2864 23.515 67.7024 24.3126C68.1358 25.11 68.708 25.7084 69.4186 26.107C70.1294 26.4886 70.9094 26.6791 71.7588 26.6791ZM84.5433 9.28029V28.5257H82.1769V9.28029H84.5433ZM101.213 14.2737V28.5257H98.8471V26.419C98.3964 27.1473 97.7638 27.7194 96.9489 28.1357C96.1515 28.5344 95.2675 28.7339 94.2967 28.7339C93.1873 28.7339 92.1904 28.5083 91.3063 28.0575C90.4224 27.5895 89.7202 26.896 89.2002 25.9769C88.6973 25.0581 88.4459 23.9398 88.4459 22.622V14.2737H90.7862V22.31C90.7862 23.7145 91.1416 24.798 91.8524 25.5608C92.5632 26.3065 93.534 26.6791 94.7646 26.6791C96.0303 26.6791 97.0269 26.2891 97.7551 25.5089C98.483 24.7287 98.8471 23.593 98.8471 22.1019V14.2737H101.213ZM108.095 16.2242V24.6246C108.095 25.3181 108.243 25.8122 108.537 26.107C108.832 26.3845 109.343 26.5231 110.071 26.5231H111.813V28.5257H109.681C108.364 28.5257 107.376 28.2224 106.717 27.6156C106.058 27.0087 105.729 26.0117 105.729 24.6246V16.2242H103.883V14.2737H105.729V10.6847H108.095V14.2737H111.813V16.2242H108.095ZM115.903 11.9591C115.452 11.9591 115.071 11.803 114.758 11.4909C114.446 11.1788 114.29 10.7974 114.29 10.3466C114.29 9.8958 114.446 9.51435 114.758 9.20226C115.071 8.89017 115.452 8.73413 115.903 8.73413C116.336 8.73413 116.7 8.89017 116.995 9.20226C117.307 9.51435 117.463 9.8958 117.463 10.3466C117.463 10.7974 117.307 11.1788 116.995 11.4909C116.7 11.803 116.336 11.9591 115.903 11.9591ZM117.047 14.2737V28.5257H114.68V14.2737H117.047ZM127.294 28.7597C125.96 28.7597 124.746 28.4564 123.654 27.8496C122.579 27.2427 121.73 26.3845 121.106 25.2749C120.499 24.1479 120.196 22.8475 120.196 21.3737C120.196 19.9173 120.508 18.6343 121.132 17.5246C121.773 16.3976 122.64 15.5394 123.732 14.9499C124.824 14.343 126.046 14.0396 127.398 14.0396C128.751 14.0396 129.973 14.343 131.065 14.9499C132.157 15.5394 133.015 16.389 133.639 17.4986C134.28 18.6083 134.601 19.8999 134.601 21.3737C134.601 22.8475 134.272 24.1479 133.613 25.2749C132.972 26.3845 132.096 27.2427 130.987 27.8496C129.877 28.4564 128.646 28.7597 127.294 28.7597ZM127.294 26.6791C128.144 26.6791 128.941 26.4799 129.687 26.081C130.432 25.6823 131.03 25.0841 131.481 24.2865C131.949 23.4889 132.183 22.5179 132.183 21.3737C132.183 20.2294 131.958 19.2584 131.507 18.4609C131.056 17.6633 130.467 17.0738 129.739 16.6924C129.011 16.2936 128.222 16.0942 127.372 16.0942C126.506 16.0942 125.708 16.2936 124.98 16.6924C124.269 17.0738 123.697 17.6633 123.264 18.4609C122.83 19.2584 122.614 20.2294 122.614 21.3737C122.614 22.5353 122.822 23.515 123.238 24.3126C123.671 25.11 124.243 25.7084 124.954 26.107C125.665 26.4886 126.445 26.6791 127.294 26.6791ZM144.655 14.0136C146.389 14.0136 147.793 14.5424 148.867 15.6001C149.942 16.6404 150.48 18.1488 150.48 20.1253V28.5257H148.14V20.4634C148.14 19.0417 147.784 17.9581 147.073 17.2125C146.363 16.4496 145.392 16.0682 144.161 16.0682C142.913 16.0682 141.916 16.4583 141.171 17.2385C140.442 18.0188 140.079 19.1544 140.079 20.6455V28.5257H137.712V14.2737H140.079V16.3023C140.547 15.5741 141.179 15.0106 141.977 14.6118C142.791 14.213 143.684 14.0136 144.655 14.0136ZM159.389 28.7597C158.297 28.7597 157.318 28.5776 156.451 28.2137C155.584 27.8322 154.9 27.312 154.397 26.6533C153.894 25.9769 153.617 25.2054 153.565 24.3385H156.009C156.079 25.0494 156.408 25.6301 156.997 26.081C157.604 26.5318 158.393 26.7571 159.364 26.7571C160.265 26.7571 160.976 26.5579 161.496 26.159C162.016 25.7603 162.276 25.2575 162.276 24.6507C162.276 24.0265 161.998 23.5669 161.444 23.2723C160.889 22.9601 160.031 22.6568 158.869 22.3619C157.812 22.0846 156.945 21.8072 156.269 21.5297C155.61 21.235 155.038 20.8102 154.553 20.2554C154.085 19.6832 153.851 18.9377 153.851 18.0188C153.851 17.2906 154.068 16.623 154.501 16.0162C154.934 15.4093 155.55 14.9325 156.347 14.5858C157.145 14.2217 158.055 14.0396 159.077 14.0396C160.655 14.0396 161.929 14.4384 162.9 15.236C163.871 16.0335 164.391 17.1258 164.46 18.5129H162.094C162.042 17.7674 161.738 17.1692 161.184 16.7184C160.646 16.2676 159.918 16.0422 159 16.0422C158.15 16.0422 157.474 16.2242 156.971 16.5884C156.469 16.9525 156.217 17.4293 156.217 18.0188C156.217 18.4869 156.364 18.877 156.659 19.1891C156.971 19.4838 157.353 19.7266 157.803 19.9173C158.271 20.0907 158.913 20.2901 159.727 20.5155C160.75 20.7929 161.582 21.0703 162.224 21.3477C162.865 21.6078 163.411 22.0065 163.862 22.544C164.33 23.0815 164.573 23.7838 164.59 24.6507C164.59 25.4309 164.373 26.1331 163.94 26.7571C163.507 27.3813 162.891 27.8756 162.094 28.2396C161.314 28.5863 160.412 28.7597 159.389 28.7597Z" fill="white"/>
</g>
<defs>
<clipPath id="clip0_133_136">
<rect width="166" height="39" fill="white"/>
</clipPath>
</defs>
</svg>
