<svg width="745" height="175" viewBox="0 0 745 175" fill="none" xmlns="http://www.w3.org/2000/svg">
<path d="M67.1682 158.788C66.3534 158.788 65.5386 158.774 64.7238 158.74C53.5372 158.305 43.0411 154.438 35.0172 147.933C32.1929 145.647 32.2274 141.297 34.9343 138.873C37.1509 136.891 40.4309 136.877 42.7511 138.735C48.7518 143.541 56.6722 146.407 65.2002 146.731C77.3536 147.208 90.8327 143.071 100.376 135.931C107.488 130.614 114.753 120.94 114.96 111.307C115.063 106.397 113.627 102.82 110.568 100.369C105.942 96.6609 97.517 95.6044 89.1064 97.676C86.4133 98.3389 83.6236 99.1813 80.675 100.079C68.4112 103.794 54.5108 108.006 41.225 100.659C38.4422 99.1192 35.9494 97.3583 33.7466 95.4179C24.2449 97.4757 15.1161 99.0294 6.91261 100.286C3.60497 100.79 0.539019 98.5115 0.0625538 95.2039C-0.407007 91.9446 1.8165 88.9132 5.0689 88.4229C11.4287 87.4492 18.3478 86.296 25.55 84.8597C21.4828 76.6701 21.1099 67.1408 25.0321 57.8669C32.331 40.5899 47.5158 26.289 65.6422 19.5978C82.719 13.3001 105.189 14.7364 113.675 32.9595C116.313 38.6219 116.928 45.1888 115.222 51.2033C109.367 71.8433 82.5878 80.8961 65.1726 86.7794L63.8813 87.2145C59.2548 88.782 54.5937 90.1906 49.9464 91.4612C58.1154 94.3545 67.4099 91.5441 77.1809 88.5817C80.1502 87.684 83.2231 86.7518 86.2269 86.0129C95.7078 83.6789 109.042 83.7687 118.074 90.9986C122.259 94.3476 127.196 100.638 126.968 111.569C126.65 126.181 116.32 139.004 107.571 145.55C96.3915 153.92 81.4553 158.788 67.1682 158.788V158.788ZM84.1553 28.2846C79.0315 28.2846 73.8457 29.3757 69.8061 30.8672C54.7318 36.426 42.1296 48.2686 36.0944 62.5418C33.1804 69.4333 33.9676 76.4146 37.9243 82.1529C45.2508 80.3989 52.7155 78.3273 60.042 75.8483L61.3402 75.4064C74.9298 70.8144 97.6828 63.1219 103.076 49.698C104.616 45.8517 104.443 41.3426 102.599 37.6275C99.1467 30.6601 91.7166 28.2915 84.1622 28.2915L84.1553 28.2846Z" fill="url(#paint0_linear_17_2308)"/>
<path d="M219.171 93.5736C219.171 95.5964 219.054 97.7359 218.821 99.9921H167.706C168.095 106.294 170.235 111.234 174.125 114.813C178.092 118.314 182.877 120.064 188.479 120.064C193.069 120.064 196.881 119.014 199.915 116.914C203.027 114.735 205.206 111.857 206.45 108.278H217.887C216.175 114.424 212.752 119.442 207.617 123.332C202.483 127.144 196.103 129.05 188.479 129.05C182.41 129.05 176.964 127.689 172.141 124.966C167.395 122.243 163.661 118.392 160.938 113.413C158.215 108.356 156.853 102.521 156.853 95.9076C156.853 89.2946 158.176 83.4986 160.821 78.5194C163.466 73.5402 167.162 69.728 171.907 67.0828C176.731 64.3598 182.255 62.9983 188.479 62.9983C194.547 62.9983 199.915 64.3209 204.583 66.9661C209.251 69.6113 212.83 73.2679 215.32 77.9359C217.887 82.5261 219.171 87.7387 219.171 93.5736ZM208.201 91.3563C208.201 87.3108 207.306 83.8487 205.517 80.9701C203.727 78.0137 201.277 75.7964 198.165 74.3182C195.13 72.7622 191.746 71.9842 188.012 71.9842C182.644 71.9842 178.053 73.6958 174.241 77.119C170.507 80.5422 168.367 85.288 167.823 91.3563H208.201ZM255.828 129.05C250.927 129.05 246.531 128.233 242.641 126.6C238.751 124.888 235.678 122.554 233.422 119.598C231.165 116.563 229.921 113.101 229.687 109.211H240.657C240.968 112.401 242.446 115.007 245.092 117.03C247.815 119.053 251.354 120.064 255.711 120.064C259.757 120.064 262.947 119.17 265.281 117.38C267.615 115.591 268.782 113.335 268.782 110.612C268.782 107.811 267.537 105.749 265.047 104.427C262.558 103.026 258.707 101.665 253.494 100.342C248.748 99.0974 244.858 97.8526 241.824 96.6078C238.868 95.2852 236.3 93.3791 234.122 90.8895C232.021 88.3222 230.971 84.9768 230.971 80.8534C230.971 77.5858 231.943 74.5905 233.888 71.8675C235.833 69.1445 238.595 67.005 242.174 65.449C245.753 63.8152 249.837 62.9983 254.428 62.9983C261.507 62.9983 267.226 64.7877 271.582 68.3665C275.939 71.9453 278.273 76.8467 278.584 83.0707H267.965C267.731 79.7253 266.37 77.0412 263.88 75.0184C261.468 72.9956 258.201 71.9842 254.077 71.9842C250.265 71.9842 247.231 72.8011 244.975 74.4349C242.719 76.0687 241.591 78.2082 241.591 80.8534C241.591 82.954 242.252 84.7045 243.574 86.1049C244.975 87.4275 246.686 88.5167 248.709 89.3724C250.81 90.1504 253.688 91.0451 257.345 92.0565C261.935 93.3013 265.67 94.5461 268.548 95.7909C271.427 96.9579 273.877 98.7473 275.9 101.159C278.001 103.571 279.09 106.722 279.168 110.612C279.168 114.113 278.195 117.264 276.25 120.064C274.305 122.865 271.543 125.083 267.965 126.716C264.464 128.272 260.418 129.05 255.828 129.05ZM322.05 129.05C316.06 129.05 310.614 127.689 305.712 124.966C300.889 122.243 297.077 118.392 294.276 113.413C291.553 108.356 290.191 102.521 290.191 95.9076C290.191 89.3724 291.592 83.6153 294.393 78.6361C297.271 73.5791 301.161 69.728 306.063 67.0828C310.964 64.3598 316.449 62.9983 322.517 62.9983C328.586 62.9983 334.07 64.3598 338.972 67.0828C343.873 69.728 347.724 73.5402 350.525 78.5194C353.404 83.4986 354.843 89.2946 354.843 95.9076C354.843 102.521 353.365 108.356 350.408 113.413C347.53 118.392 343.601 122.243 338.622 124.966C333.643 127.689 328.119 129.05 322.05 129.05ZM322.05 119.714C325.863 119.714 329.441 118.82 332.787 117.03C336.132 115.241 338.816 112.557 340.839 108.978C342.94 105.399 343.99 101.042 343.99 95.9076C343.99 90.7728 342.978 86.4161 340.956 82.8373C338.933 79.2585 336.288 76.6133 333.02 74.9017C329.753 73.1123 326.213 72.2176 322.4 72.2176C318.51 72.2176 314.932 73.1123 311.664 74.9017C308.474 76.6133 305.907 79.2585 303.962 82.8373C302.017 86.4161 301.044 90.7728 301.044 95.9076C301.044 101.12 301.978 105.516 303.845 109.095C305.79 112.673 308.358 115.358 311.547 117.147C314.737 118.859 318.238 119.714 322.05 119.714ZM379.426 41.6423V128H368.806V41.6423H379.426ZM454.241 64.0486V128H443.621V118.547C441.598 121.815 438.759 124.382 435.102 126.25C431.523 128.039 427.556 128.934 423.199 128.934C418.22 128.934 413.746 127.922 409.778 125.899C405.811 123.799 402.66 120.687 400.326 116.563C398.069 112.44 396.941 107.422 396.941 101.509V64.0486H407.444V100.109C407.444 106.411 409.039 111.273 412.229 114.696C415.419 118.042 419.776 119.714 425.299 119.714C430.979 119.714 435.452 117.964 438.72 114.463C441.987 110.962 443.621 105.866 443.621 99.1752V64.0486H454.241ZM485.125 72.8011V110.495C485.125 113.607 485.787 115.824 487.109 117.147C488.432 118.392 490.727 119.014 493.994 119.014H501.813V128H492.244C486.331 128 481.897 126.639 478.94 123.916C475.984 121.193 474.506 116.719 474.506 110.495V72.8011H466.22V64.0486H474.506V47.9441H485.125V64.0486H501.813V72.8011H485.125ZM520.165 53.6624C518.142 53.6624 516.431 52.9622 515.03 51.5618C513.63 50.1614 512.93 48.4498 512.93 46.427C512.93 44.4042 513.63 42.6926 515.03 41.2922C516.431 39.8918 518.142 39.1916 520.165 39.1916C522.11 39.1916 523.744 39.8918 525.067 41.2922C526.467 42.6926 527.167 44.4042 527.167 46.427C527.167 48.4498 526.467 50.1614 525.067 51.5618C523.744 52.9622 522.11 53.6624 520.165 53.6624ZM525.3 64.0486V128H514.68V64.0486H525.3ZM571.291 129.05C565.3 129.05 559.854 127.689 554.953 124.966C550.129 122.243 546.317 118.392 543.516 113.413C540.793 108.356 539.432 102.521 539.432 95.9076C539.432 89.3724 540.832 83.6153 543.633 78.6361C546.511 73.5791 550.401 69.728 555.303 67.0828C560.204 64.3598 565.689 62.9983 571.757 62.9983C577.826 62.9983 583.311 64.3598 588.212 67.0828C593.113 69.728 596.964 73.5402 599.765 78.5194C602.644 83.4986 604.083 89.2946 604.083 95.9076C604.083 102.521 602.605 108.356 599.649 113.413C596.77 118.392 592.841 122.243 587.862 124.966C582.883 127.689 577.359 129.05 571.291 129.05ZM571.291 119.714C575.103 119.714 578.681 118.82 582.027 117.03C585.372 115.241 588.056 112.557 590.079 108.978C592.18 105.399 593.23 101.042 593.23 95.9076C593.23 90.7728 592.219 86.4161 590.196 82.8373C588.173 79.2585 585.528 76.6133 582.26 74.9017C578.993 73.1123 575.453 72.2176 571.641 72.2176C567.751 72.2176 564.172 73.1123 560.904 74.9017C557.714 76.6133 555.147 79.2585 553.202 82.8373C551.257 86.4161 550.285 90.7728 550.285 95.9076C550.285 101.12 551.218 105.516 553.085 109.095C555.03 112.673 557.598 115.358 560.788 117.147C563.977 118.859 567.478 119.714 571.291 119.714ZM649.205 62.8816C656.985 62.8816 663.287 65.2545 668.11 70.0003C672.934 74.6683 675.345 81.4369 675.345 90.306V128H664.843V91.8231C664.843 85.4436 663.248 80.5811 660.058 77.2357C656.868 73.8125 652.511 72.1009 646.987 72.1009C641.386 72.1009 636.912 73.8514 633.567 77.3524C630.299 80.8534 628.666 85.9493 628.666 92.64V128H618.046V64.0486H628.666V73.1512C630.766 69.8836 633.606 67.3551 637.185 65.5657C640.841 63.7763 644.848 62.8816 649.205 62.8816ZM715.332 129.05C710.431 129.05 706.035 128.233 702.145 126.6C698.255 124.888 695.182 122.554 692.926 119.598C690.67 116.563 689.425 113.101 689.192 109.211H700.161C700.473 112.401 701.951 115.007 704.596 117.03C707.319 119.053 710.859 120.064 715.216 120.064C719.261 120.064 722.451 119.17 724.785 117.38C727.119 115.591 728.286 113.335 728.286 110.612C728.286 107.811 727.041 105.749 724.552 104.427C722.062 103.026 718.211 101.665 712.998 100.342C708.253 99.0974 704.363 97.8526 701.328 96.6078C698.372 95.2852 695.805 93.3791 693.626 90.8895C691.526 88.3222 690.475 84.9768 690.475 80.8534C690.475 77.5858 691.448 74.5905 693.393 71.8675C695.338 69.1445 698.1 67.005 701.679 65.449C705.257 63.8152 709.342 62.9983 713.932 62.9983C721.012 62.9983 726.73 64.7877 731.087 68.3665C735.444 71.9453 737.778 76.8467 738.089 83.0707H727.469C727.236 79.7253 725.874 77.0412 723.385 75.0184C720.973 72.9956 717.705 71.9842 713.582 71.9842C709.77 71.9842 706.735 72.8011 704.479 74.4349C702.223 76.0687 701.095 78.2082 701.095 80.8534C701.095 82.954 701.756 84.7045 703.079 86.1049C704.479 87.4275 706.191 88.5167 708.214 89.3724C710.314 90.1504 713.193 91.0451 716.849 92.0565C721.44 93.3013 725.174 94.5461 728.053 95.7909C730.931 96.9579 733.382 98.7473 735.405 101.159C737.505 103.571 738.594 106.722 738.672 110.612C738.672 114.113 737.7 117.264 735.755 120.064C733.81 122.865 731.048 125.083 727.469 126.716C723.968 128.272 719.923 129.05 715.332 129.05Z" fill="black"/>
<defs>
<linearGradient id="paint0_linear_17_2308" x1="37.6274" y1="36.1014" x2="110.651" y2="143.935" gradientUnits="userSpaceOnUse">
<stop stop-color="#A500FF" stop-opacity="0.27"/>
<stop offset="1" stop-color="#0000B7"/>
</linearGradient>
</defs>
</svg>
