<svg width="20" height="20" viewBox="0 0 20 20" fill="none" xmlns="http://www.w3.org/2000/svg">
<g clip-path="url(#clip0_253_580)">
<path d="M7.2413 17.6679C6.40194 17.6679 5.538 17.5999 4.66888 17.4636C3.13811 17.2234 1.58853 16.4227 1.15004 16.183L0 15.5542L1.24511 15.1447C2.60618 14.6972 3.43413 14.4196 4.45904 13.9848C3.4328 13.4878 2.64187 12.5938 2.26114 11.4381L1.97148 10.5588L2.20901 10.5951C1.98377 10.368 1.80592 10.1376 1.66805 9.92807C1.17773 9.18334 0.918139 8.27334 0.973375 7.49351L1.02787 6.72597L1.48738 6.90397C1.29354 6.5379 1.15345 6.14695 1.07111 5.73719C0.870455 4.7379 1.03839 3.67626 1.5441 2.7479L1.94438 2.01309L2.47971 2.65609C4.17279 4.68992 6.31724 5.89639 8.86241 6.24958C8.75845 5.53298 8.83634 4.84141 9.09416 4.22152C9.39433 3.49974 9.92834 2.88769 10.638 2.45143C11.4261 1.96703 12.3818 1.73232 13.3292 1.79051C14.3342 1.85227 15.2467 2.22885 15.9715 2.88029C16.3254 2.78833 16.5862 2.69015 16.9386 2.55746C17.1507 2.47764 17.3912 2.38701 17.6921 2.28335L18.801 1.90128L18.0779 3.96651C18.1255 3.96251 18.1747 3.95911 18.2261 3.95689L19.4102 3.90328L18.7103 4.85978C18.6702 4.91457 18.66 4.93012 18.6458 4.95159C18.5893 5.03659 18.5192 5.14233 17.5585 6.42506C17.318 6.74626 17.1979 7.16461 17.2203 7.60324C17.3054 9.27012 17.1009 10.7782 16.6121 12.0856C16.1498 13.3224 15.4333 14.3836 14.4829 15.2397C13.3068 16.2988 11.8071 17.024 10.0253 17.3948C9.15132 17.5766 8.21275 17.6679 7.2413 17.6679Z" fill="black"/>
</g>
<defs>
<clipPath id="clip0_253_580">
<rect width="19.4101" height="19.4101" fill="white"/>
</clipPath>
</defs>
</svg>
